{"title":"Nine Inch Nails - Pretty Hate Machine - Custom Remaster by MC Lu","uid":7732081,"size":345613132,"categoryP":"audio","categoryS":"flac","magnet":"?xt=urn:btih:bb00d6a027512fe09339b0a48e866f95202dfe3a&amp;dn=Nine+Inch+Nails+-+Pretty+Hate+Machine+-+Custom+Remaster+by+MC+Lu&amp;tr=udp%3A%2F%2Ftracker.openbittorrent.com%3A80&amp;tr=udp%3A%2F%2Fopen.demonii.com%3A1337&amp;tr=udp%3A%2F%2Ftracker.coppersurfer.tk%3A6969&amp;tr=udp%3A%2F%2Fexodus.desync.com%3A6969","seeders":0,"leechers":2,"uploader":"beavis39","files":-1,"time":1350364296,"description":"Nine Inch Nails - Pretty Hate Machine - Custom Remaster by MC Lurken\n\n\n\n1 - Head Like A Hole\n2 - Terrible Lie\n3 - Down In It\n4 - Sanctified\n5 - Something I Can Never Have\n6 - Kinda I Want To\n7 - Sin\n8 - That's What I Get\n9 - The Only Time\n10 - Ringfinger\n\n\n\nSetup:\n-HP G72-250US\n-Intel Core i3 M350 2.27GHz\n-8Gb PC3-10700 RAM\n-Win7 64-bit SP1\n-SB X-Fi Surround 5.1\n\n\nProcess:\n-16-bit/44.1kHz files from 1989 release joined in Wavelab 6\n-Remove DC offset and save as 64-bit float/44.1kHz\n-Resample to 384kHz in Wavelab w/crystal resampler ultra(slow) relax background priority\n-Create new 64-bit/384kHz master recording in Wavelab\n\n\nAs reported in Wavelab:\n-Original 16-bit/44.1kHz: Apparent Bit Resolution = 16, Peak = -0.005db\n-With DC Offset Removed: Apparent Bit Resolution = 19, Peak = -0.045db\n-64-bit/384kHz Recording: Apparent Bit Resolution = 38, Peak = 0.317db\n\n\n-Resample new 64-bit/384kHz master recording to 64-bit/44.1kHz in Wavelab w/crystal resampler ultra(slow) relax background priority\n-Apply MBIT+ 16-bit Dither in Wavelab w/Izotope Ozone 5 VST Plugin\n-Flac encode level 0 with Trader's Little Helper\n-Tag and pic with xrecode II\n\n\nfoobar2000 1.1.14a / Dynamic Range Meter 1.1.1\nlog date: 2012-10-15 13:28:18\n\n--------------------------------------------------------------------------------\nAnalyzed: ? / ?\n--------------------------------------------------------------------------------\n\nDR         Peak         RMS     Duration Track\n--------------------------------------------------------------------------------\nDR13       0.00 dB   -15.69 dB      5:00 ?-01 - Head Like A Hole\nDR12      -0.58 dB   -15.08 dB      4:39 ?-02 - Terrible Lie\nDR11      -0.84 dB   -13.54 dB      3:46 ?-03 - Down In It\nDR15       0.00 dB   -19.40 dB      5:48 ?-04 - Sanctified\nDR13      -0.97 dB   -17.72 dB      5:55 ?-05 - Something I Can Never Have\nDR13       0.00 dB   -15.53 dB      4:33 ?-06 - Kinda I Want To\nDR12       0.00 dB   -14.03 dB      4:06 ?-07 - Sin\nDR13       0.00 dB   -15.94 dB      4:31 ?-08 - That's What I Get\nDR13       0.00 dB   -15.68 dB      4:48 ?-09 - The Only Time\nDR12       0.00 dB   -15.27 dB      5:41 ?-10 - Ringfinger\n--------------------------------------------------------------------------------\n\nNumber of tracks:  10\nOfficial DR value: DR13\n\nSamplerate:        44100 Hz\nChannels:          2\nBits per sample:   16\nBitrate:           1411 kbps\nCodec:             PCM\n\n\n\nenjoy :)","torrent":{"xt":"urn:btih:bb00d6a027512fe09339b0a48e866f95202dfe3a","amp;dn":"Nine+Inch+Nails+-+Pretty+Hate+Machine+-+Custom+Remaster+by+MC+Lu","amp;tr":["udp%3A%2F%2Ftracker.openbittorrent.com%3A80","udp%3A%2F%2Fopen.demonii.com%3A1337","udp%3A%2F%2Ftracker.coppersurfer.tk%3A6969","udp%3A%2F%2Fexodus.desync.com%3A6969"],"infoHash":"bb00d6a027512fe09339b0a48e866f95202dfe3a","infoHashBuffer":{"type":"Buffer","data":[187,0,214,160,39,81,47,224,147,57,176,164,142,134,111,149,32,45,254,58]},"announce":[],"urlList":[]}}